<svg xmlns="http://www.w3.org/2000/svg" xmlns:xlink="http://www.w3.org/1999/xlink" viewBox="0 0 512 512"
	aria-hidden="true" focusable="false" role="img">
	<defs>
		<path id="spinner-third" fill="#2196f3"
			d="M456.433 371.72l-27.79-16.045c-7.192-4.152-10.052-13.136-6.487-20.636 25.82-54.328 23.566-118.602-6.768-171.03-30.265-52.529-84.802-86.621-144.76-91.424C262.35 71.922 256 64.953 256 56.649V24.56c0-9.31 7.916-16.609 17.204-15.96 81.795 5.717 156.412 51.902 197.611 123.408 41.301 71.385 43.99 159.096 8.042 232.792-4.082 8.369-14.361 11.575-22.424 6.92z">
		</path>
		<style>
		@keyframes fa-spin {
			to {
				transform: rotate(1turn);
			}
		}
		.spinner {
			animation: fa-spin 7s linear infinite;
			opacity: .5;
			transform-origin: 50%;
		}
		use:nth-of-type(1) {
			animation-duration: 3s;
		}
		use:nth-of-type(2) {
			animation-duration: 5s;
		}
		use:nth-of-type(3) {
			animation-direction: alternate-reverse;
			animation-duration: 11s;
		}
		use:nth-of-type(4) {
			animation-direction: alternate-reverse;
			animation-duration: 13s;
		}
		</style>
	</defs>
	<use class="spinner" xlink:href="#spinner-third" />
	<use class="spinner" xlink:href="#spinner-third" />
	<use class="spinner" xlink:href="#spinner-third" />
	<use class="spinner" xlink:href="#spinner-third" />
	<path class="spinner" fill="#2196f3"
		d="M288 39.056v16.659c0 10.804 7.281 20.159 17.686 23.066C383.204 100.434 440 171.518 440 256c0 101.689-82.295 184-184 184-101.689 0-184-82.295-184-184 0-84.47 56.786-155.564 134.312-177.219C216.719 75.874 224 66.517 224 55.712V39.064c0-15.709-14.834-27.153-30.046-23.234C86.603 43.482 7.394 141.206 8.003 257.332c.72 137.052 111.477 246.956 248.531 246.667C393.255 503.711 504 392.788 504 256c0-115.633-79.14-212.779-186.211-240.236C302.678 11.889 288 23.456 288 39.056z">
	</path>
</svg>
